<svg width="957" height="707" viewBox="0 0 957 707" fill="none" xmlns="http://www.w3.org/2000/svg">
<path d="M551.558 390.941C722.332 366.276 811.134 263.034 856.452 174.624C890.19 108.963 904.852 42.7179 911.183 0.0545742H900.103C893.772 41.8847 879.277 106.213 846.539 169.875C773.897 311.197 649.94 383.608 478.25 385.275L478.187 0H466.921V692.585C176.772 687.669 19.0767 296.198 10.9962 0.137901H0C8.24713 302.698 171.94 703.584 472.752 703.584H478.25V396.524C681.513 398.607 806.552 505.182 875.778 594.842C906.101 634.089 928.676 673.586 944.837 707H957C940.422 672.169 916.847 630.173 884.692 588.426C822.63 508.099 716.75 414.273 551.558 390.941Z" fill="#005EFF"/>
</svg>